<svg id="Layer_1" viewBox="0 0 512 512" xmlns="http://www.w3.org/2000/svg" xmlns:xlink="http://www.w3.org/1999/xlink" data-name="Layer 1"><linearGradient id="GradientFill_1" gradientUnits="userSpaceOnUse" x1="255.748" x2="255.749" y1="512.42" y2=".422"><stop offset="0" stop-color="#6c54a3"/><stop offset="1" stop-color="#00b1d2"/></linearGradient><path d="m255.749.422c141.383 0 256 114.587 256 255.963s-114.615 256.035-256 256.035-256-114.659-256-256.035 114.623-255.963 256-255.963zm41.087 358.121a4.006 4.006 0 0 0 -4.011-4h-33.066v-33.077a4.008 4.008 0 1 0 -8.015 0v33.073h-33.064a4.009 4.009 0 0 0 0 8.017h33.064v33.058a4.008 4.008 0 1 0 8.015 0v-33.058h33.066a4.012 4.012 0 0 0 4.011-4.013zm25.329-18.351a162.2 162.2 0 0 0 50.892-36.59c-2.163-42.37-27.939-81.076-66.276-99.745a70.142 70.142 0 0 1 -102.06 0c-38.336 18.669-64.11 57.375-66.281 99.745a162.4 162.4 0 0 0 50.9 36.59 68.906 68.906 0 0 1 132.827 0zm-66.417 79.228a60.877 60.877 0 1 0 -60.877-60.877 60.95 60.95 0 0 0 60.877 60.877zm0-326a62.223 62.223 0 1 0 62.232 62.22 62.3 62.3 0 0 0 -62.232-62.219z" fill="url(#GradientFill_1)" fill-rule="evenodd"/></svg>